# xmcd
#
# Track frame offsets:
#	150
#	21773
#	39519
#	60014
#	76904
#	94928
#	114674
#	135498
#	151331
#	170776
#	189694
#	206488
#	222653
#	250961
#	272202
#	289446
#	306252
#	321721
#	338932
#
# Disc length: 4757 seconds
#
# Revision: 1
# Processed by: cddbd v1.5PL3 Copyright (c) Steve Scherf et al.
# Submitted via: audiograbber 1.81.02
#
DISCID=26129313
DTITLE=Marco antonio solis - Lo mejor
DYEAR=1900
DGENRE=
TTITLE0=Si no te hubieras ido
TTITLE1=Amor en silencio
TTITLE2=Se me va muriendo mi alma
TTITLE3=Mi eterno amor secreto
TTITLE4=Sigue en mi
TTITLE5=Si te pudiera mentir
TTITLE6=La ultima parte
TTITLE7=Inventame
TTITLE8=A que me quedo contigo
TTITLE9=El peor de mis fracasos
TTITLE10=Desde que te perdi
TTITLE11=Tu compañero
TTITLE12=Tu dulce y mi sal
TTITLE13=Un par de humanos
TTITLE14=ya aprenderas
TTITLE15=Que haces ahora
TTITLE16=Me vas hacer llorar
TTITLE17=Los dos contra mi
TTITLE18=Tu par
EXTD=
EXTT0=
EXTT1=
EXTT2=
EXTT3=
EXTT4=
EXTT5=
EXTT6=
EXTT7=
EXTT8=
EXTT9=
EXTT10=
EXTT11=
EXTT12=
EXTT13=
EXTT14=
EXTT15=
EXTT16=
EXTT17=
EXTT18=
PLAYORDER=
